<svg width="406" height="306" viewBox="0 0 406 306" fill="none" xmlns="http://www.w3.org/2000/svg">
<g id="Artificial intelligence_Isometric 1" clip-path="url(#clip0)">
<path id="Vector" d="M196.971 289.314L14.5551 181.501C8.74931 178.243 3.76566 172.884 9.42936 169.382L192.505 63.8221C195.256 62.1169 199.427 61.0004 202.218 62.6244L393.698 173.808C399.504 177.177 400.549 186.597 394.713 189.976L221.016 289.142C217.369 291.258 213.233 292.387 209.016 292.417C204.8 292.447 200.648 291.378 196.971 289.314Z" fill="url(#paint0_linear)"/>
<path id="Vector_2" d="M153.722 206.288L106.88 236.068L70.5121 214.58L134.092 192.514" fill="url(#paint1_linear)"/>
<path id="Vector_3" d="M298.572 222.761L191.135 285.863L116.908 241.995L216.54 180.283" fill="url(#paint2_linear)"/>
<path id="Vector_4" d="M140.395 193.732C140.395 193.732 142.75 196.777 144.455 197.619C146.16 198.462 155.102 200.664 154.077 205.506C153.052 210.347 143.927 206.125 141.521 204.998C139.116 203.872 135.127 204.075 133.493 203.151C131.859 202.227 133.391 194.442 134.051 193.113C134.711 191.783 140.395 193.732 140.395 193.732Z" fill="#2D343C"/>
<path id="Vector_5" d="M121.881 122.083C121.993 122.773 126.124 151.863 128.367 153.406C130.61 154.949 138.355 154.096 139.897 150.31C141.44 146.524 143.511 110.451 136.629 104.392C129.747 98.3321 120.105 110.654 121.881 122.083Z" fill="#D7DCEF"/>
<path id="Vector_6" d="M128.357 153.416C127.498 156.054 126.923 158.776 126.642 161.536C126.307 165.596 130.702 193.509 134.396 195.498C138.091 197.487 141.055 195.721 141.44 193.945C141.826 192.169 141.298 155.446 140.273 153.396C139.248 151.346 131.29 150.97 128.357 153.416Z" fill="#D7DCEF"/>
<path id="Vector_7" d="M129.25 119.058C135.215 119.058 140.05 114.223 140.05 108.259C140.05 102.294 135.215 97.4592 129.25 97.4592C123.286 97.4592 118.451 102.294 118.451 108.259C118.451 114.223 123.286 119.058 129.25 119.058Z" fill="#2D343C"/>
<g id="arm2">
<path id="Vector_8" d="M125.292 58.2295C121.364 62.5026 129.352 69.0697 132.183 71.0185C142.577 78.1235 160.431 86.4465 163.537 84.6905C166.643 82.9346 168.612 79.9911 163.953 75.5555C159.294 71.12 133.422 49.47 125.292 58.2295Z" fill="#D7DCEF"/>
<path id="Vector_9" d="M165.12 82.9142C165.546 82.9142 166.704 81.4425 168.764 77.3013C170.825 73.1601 177.412 56.6359 176.052 54.7784C174.692 52.921 170.51 52.2815 169.799 53.601C167.089 58.676 164.359 63.751 161.852 68.8768C160.218 72.2365 157.213 77.6667 160.837 80.8233" fill="#D7DCEF"/>
<path id="Vector_10" d="M174.742 56.2401C175.098 56.1792 180.883 52.5861 181.736 51.297C182.588 50.008 183.979 48.1607 183.857 46.8412C183.735 45.5217 182.639 40.4467 181.715 39.9595C180.792 39.4723 180.244 40.132 180 40.9034C179.757 41.6748 181.208 44.1819 180.234 45.1461C179.259 46.1104 176.955 48.1911 176.174 47.6836C175.392 47.1761 175.098 46.3438 175.605 45.1258C176.113 43.9078 176.854 42.5274 176.092 42.3955C175.331 42.2635 173.403 43.7962 173.047 44.8721C172.692 45.948 171.19 52.7891 171.19 52.7891" fill="#D7DCEF"/>
<path id="Vector_11" d="M164.603 80.4377C163.276 78.3962 162.516 76.0387 162.4 73.6067C162.299 71.6579 159.254 71.6477 159.355 73.6067C159.48 76.5695 160.384 79.447 161.974 81.95C163.029 83.6146 165.668 82.0921 164.603 80.4377Z" fill="#2D343C"/>
</g>
<path id="Vector_12" d="M132.772 65.7404C136.898 65.7404 140.243 62.3958 140.243 58.27C140.243 54.1443 136.898 50.7997 132.772 50.7997C128.646 50.7997 125.302 54.1443 125.302 58.27C125.302 62.3958 128.646 65.7404 132.772 65.7404Z" fill="#2D343C"/>
<path id="Vector_13" d="M107.164 77.7885C107.164 77.7885 109.782 110.786 111.863 112.095C113.944 113.405 119.212 117.343 124.338 117.17C129.463 116.998 135.777 112.339 136.112 108.523C136.446 104.706 141.247 75.6468 140.05 69.5264C138.852 63.4059 137.106 53.7634 132.468 52.4541C127.829 51.1447 124.957 49.6121 116.349 52.4541C111.021 54.1897 104.322 57.1028 103.226 61.041C102.129 64.9792 107.164 77.7885 107.164 77.7885Z" fill="#C4C4C4"/>
<g id="head">
<path id="Vector_14" d="M124.632 25.6784L124.358 25.5972C122.193 25.1732 119.959 25.2566 117.831 25.8408C105.276 28.8858 106.92 50.6576 117.141 55.5499C124.581 59.1125 128.235 56.5649 129.95 52.8398C132.195 48.2139 133.112 43.0558 132.6 37.9396C132.011 33.1488 129.707 27.2517 124.632 25.6784Z" fill="#E9E8F6"/>
<path id="Vector_15" d="M126.398 55.8239L126.936 55.6514C127.251 55.5093 127.555 55.3773 127.86 55.2149L128.052 55.1134C130.722 47.4806 130.224 35.4833 126.936 30.4388C126.136 29.149 125.083 28.0344 123.841 27.1623C122.599 26.2901 121.194 25.6783 119.709 25.3638C118.857 25.5363 118.014 25.7292 117.182 25.9728C118.915 26.1574 120.587 26.7214 122.078 27.6248C123.569 28.5282 124.843 29.7488 125.809 31.2C128.905 35.9299 129.057 48.658 126.398 55.8239Z" fill="#C4C4C4"/>
<path id="Vector_16" d="M132.052 35.1382C132.255 35.0875 132.112 38.0512 125.961 38.6095C122.916 38.8835 116.826 37.2291 116.167 37.8483C115.507 38.4674 116.471 42.8218 118.846 44.0499C121.221 45.2781 126.733 45.5826 129.179 44.8112C130.638 44.3582 131.912 43.447 132.813 42.2127C132.844 39.8326 132.588 37.4573 132.052 35.1382Z" fill="#2D343C"/>
</g>
<g id="arm1">
<path id="Vector_17" d="M107.022 59.5591C101.754 57.1231 97.9374 66.7453 96.9528 70.0339C93.3293 82.1124 90.8628 101.651 93.5323 104.067C96.2017 106.483 99.6223 107.487 102.393 101.651C105.164 95.8149 117.892 64.6036 107.022 59.5591Z" fill="#D7DCEF"/>
<path id="Vector_18" d="M95.5013 105.721C95.7551 106.066 97.6126 106.148 102.18 105.396C106.748 104.645 124.003 100.322 124.713 98.1291C125.424 95.9367 123.495 92.171 122.003 92.374C116.309 93.1353 110.625 93.8763 104.961 94.871C101.277 95.5104 95.1157 96.2514 94.6894 101.052" fill="#D7DCEF"/>
<path id="Vector_19" d="M122.815 97.9261C123.069 98.1799 129.382 100.768 130.935 100.707C132.488 100.646 134.792 100.707 135.787 99.8242C136.781 98.9411 140.192 95.145 140.07 94.059C139.948 92.9729 139.055 92.9628 138.304 93.2165C137.553 93.4703 136.335 96.16 134.995 95.886C133.655 95.6119 130.62 94.9928 130.539 94.0387C130.458 93.0846 130.996 92.3842 132.275 92.0899C133.554 91.7955 135.107 91.5824 134.782 90.882C134.457 90.1817 132.072 89.5219 131.006 89.867C129.94 90.2121 123.495 92.9932 123.495 92.9932" fill="#D7DCEF"/>
<path id="Vector_20" d="M101.124 96.2311C99.6121 98.9005 97.0645 100.565 94.4661 102.017C92.7507 102.96 94.2834 105.589 95.9987 104.645C99.0437 102.95 101.987 100.89 103.753 97.7738C103.855 97.6012 103.921 97.4104 103.948 97.2121C103.976 97.0139 103.964 96.8122 103.914 96.6185C103.863 96.4248 103.775 96.2429 103.655 96.0833C103.534 95.9236 103.383 95.7893 103.21 95.688C103.038 95.5867 102.847 95.5204 102.649 95.4929C102.45 95.4653 102.249 95.4771 102.055 95.5275C101.861 95.578 101.679 95.6661 101.52 95.7868C101.36 95.9075 101.226 96.0584 101.124 96.2311Z" fill="#2D343C"/>
</g>
<path id="Vector_21" d="M105.012 72.8353C109.138 72.8353 112.482 69.4907 112.482 65.3649C112.482 61.2391 109.138 57.8945 105.012 57.8945C100.886 57.8945 97.5415 61.2391 97.5415 65.3649C97.5415 69.4907 100.886 72.8353 105.012 72.8353Z" fill="#2D343C"/>
<path id="Vector_22" d="M115.812 126.062C121.776 126.062 126.611 121.227 126.611 115.262C126.611 109.298 121.776 104.463 115.812 104.463C109.847 104.463 105.012 109.298 105.012 115.262C105.012 121.227 109.847 126.062 115.812 126.062Z" fill="#2D343C"/>
<path id="Vector_23" d="M102.414 150.97C102.414 150.97 104.342 121.961 106.169 115.445C107.306 111.385 110.594 106.797 115.385 107.325C121.658 108.015 124.023 113.151 124.206 117.84C124.459 124.377 114.056 155.213 112.097 155.588C110.138 155.964 103.53 157.06 102.414 150.97Z" fill="#D7DCEF"/>
<path id="Vector_24" d="M106.798 151.802C105.573 152.103 104.418 152.643 103.403 153.392C102.387 154.141 101.53 155.084 100.881 156.167C98.4855 159.943 98.1505 169.778 97.5719 178.497C96.9934 187.216 96.0901 196.077 98.4347 198.259C100.779 200.441 103.875 201.081 104.839 198.198C105.804 195.315 113.832 161.831 113.081 158.014C112.33 154.198 106.798 151.802 106.798 151.802Z" fill="#D7DCEF"/>
<path id="Vector_25" d="M104.961 199.954C104.961 199.954 109.559 205.78 111.437 207.84C113.315 209.901 114.299 212.438 113.518 214.57C112.736 216.701 108.026 216.072 106.687 215.585C105.347 215.098 95.41 207.81 95.3389 204.542C95.2679 201.273 95.7043 197.437 96.9223 196.98C98.1403 196.523 102.312 200.39 104.961 199.954Z" fill="#2D343C"/>
<path id="Vector_26" d="M112.279 154.523C112.209 154.265 112.088 154.024 111.925 153.813C111.761 153.603 111.557 153.426 111.325 153.294C111.094 153.162 110.838 153.077 110.573 153.044C110.308 153.011 110.04 153.031 109.782 153.102C108.153 153.355 106.485 153.093 105.012 152.35C102.677 151.193 100.617 154.695 102.982 155.852C105.42 157.082 108.191 157.488 110.879 157.009C111.392 156.862 111.828 156.519 112.09 156.054C112.352 155.588 112.42 155.038 112.279 154.523Z" fill="#2D343C"/>
<path id="Vector_27" d="M136.731 150.117C134.511 150.948 132.145 151.314 129.778 151.193C127.169 151.072 127.169 155.132 129.778 155.253C132.512 155.392 135.246 154.977 137.817 154.035C140.232 153.142 139.187 149.214 136.731 150.117Z" fill="#2D343C"/>
<path id="Vector_28" d="M307.931 190.443C297.984 181.247 277.826 174.965 254.562 174.965C231.298 174.965 211.14 181.258 201.193 190.443H194.606V203.435C194.606 219.158 221.453 231.906 254.562 231.906C287.671 231.906 314.518 219.158 314.518 203.435V190.443H307.931Z" fill="#68E1FD"/>
<path id="Vector_29" opacity="0.47" d="M307.931 190.443C297.984 181.247 277.826 174.965 254.562 174.965C231.298 174.965 211.14 181.258 201.193 190.443H194.606V203.435C194.606 219.158 221.453 231.906 254.562 231.906C287.671 231.906 314.518 219.158 314.518 203.435V190.443H307.931Z" fill="#1B4075"/>
<path id="Vector_30" d="M254.562 218.914C287.675 218.914 314.518 206.167 314.518 190.443C314.518 174.719 287.675 161.973 254.562 161.973C221.449 161.973 194.606 174.719 194.606 190.443C194.606 206.167 221.449 218.914 254.562 218.914Z" fill="#68E1FD"/>
<path id="Vector_31" d="M253.983 198.188C264.887 198.188 273.725 194.18 273.725 189.235C273.725 184.291 264.887 180.283 253.983 180.283C243.08 180.283 234.242 184.291 234.242 189.235C234.242 194.18 243.08 198.188 253.983 198.188Z" fill="#6D6D9B"/>
<path id="Vector_32" d="M254.42 216.123C226.193 216.123 203.223 204.603 203.223 190.453C203.223 176.304 226.193 164.784 254.42 164.784C282.647 164.784 305.617 176.345 305.617 190.453C305.617 204.562 282.647 216.123 254.42 216.123ZM254.42 165.373C226.487 165.373 203.761 176.639 203.761 190.484C203.761 204.329 226.487 215.595 254.42 215.595C282.353 215.595 305.079 204.329 305.079 190.484C305.079 176.639 282.353 165.353 254.42 165.353V165.373Z" fill="#6D6D9B"/>
<path id="Vector_33" d="M228.375 207.079C217.697 203.314 210.775 197.305 210.775 190.545C210.775 184.678 215.992 179.38 224.335 175.634L224 175.31C215.576 179.157 210.308 184.566 210.308 190.535C210.308 197.467 217.362 203.638 228.213 207.485L228.375 207.079Z" fill="#6D6D9B"/>
<path id="Vector_34" d="M284.971 205.262C277.085 208.906 266.306 211.16 254.42 211.16C253.05 211.16 251.71 211.16 250.36 211.058C250.36 211.21 250.36 211.363 250.36 211.525C251.69 211.586 253.029 211.626 254.42 211.626C266.488 211.626 277.43 209.302 285.408 205.536L284.971 205.262Z" fill="#6D6D9B"/>
<path id="Vector_35" d="M298.116 190.555C298.065 192.952 297.251 195.27 295.791 197.173L296.207 197.355C297.701 195.395 298.533 193.01 298.583 190.545C298.583 180.618 284.159 172.275 264.793 170.042L264.671 170.488C283.824 172.671 298.116 180.831 298.116 190.555Z" fill="#6D6D9B"/>
<path id="Vector_36" d="M254.42 204.095C237.297 204.095 223.371 197.427 223.371 189.235C223.371 181.044 237.297 174.376 254.42 174.376C271.543 174.376 285.469 181.044 285.469 189.235C285.469 197.427 271.543 204.095 254.42 204.095ZM254.42 175.015C237.652 175.015 223.97 181.4 223.97 189.225C223.97 197.051 237.612 203.435 254.42 203.435C271.228 203.435 284.87 197.051 284.87 189.225C284.87 181.4 271.188 175.005 254.42 175.005V175.015Z" fill="#6D6D9B"/>
<path id="Vector_37" d="M295.974 198.462C297.409 198.462 298.572 197.844 298.572 197.081C298.572 196.319 297.409 195.701 295.974 195.701C294.539 195.701 293.376 196.319 293.376 197.081C293.376 197.844 294.539 198.462 295.974 198.462Z" fill="#1B4075"/>
<path id="Vector_38" d="M250.451 212.378C251.886 212.378 253.05 211.759 253.05 210.997C253.05 210.235 251.886 209.617 250.451 209.617C249.016 209.617 247.853 210.235 247.853 210.997C247.853 211.759 249.016 212.378 250.451 212.378Z" fill="#1B4075"/>
<path id="Vector_39" d="M228.771 208.084C229.842 208.084 230.71 207.639 230.71 207.089C230.71 206.54 229.842 206.095 228.771 206.095C227.7 206.095 226.832 206.54 226.832 207.089C226.832 207.639 227.7 208.084 228.771 208.084Z" fill="#1B4075"/>
<path id="Vector_40" d="M285.012 206.227C285.954 206.227 286.717 205.795 286.717 205.262C286.717 204.73 285.954 204.298 285.012 204.298C284.07 204.298 283.307 204.73 283.307 205.262C283.307 205.795 284.07 206.227 285.012 206.227Z" fill="#1B4075"/>
<path id="Vector_41" opacity="0.38" d="M298.146 6.54564C263.788 17.8527 227.096 13.6506 194.616 -1.09731V190.809C194.616 206.531 221.463 219.279 254.572 219.279C287.681 219.279 314.528 206.531 314.528 190.809V-0.0924553C309.219 2.47728 303.747 4.69477 298.146 6.54564Z" fill="url(#paint3_linear)"/>
<g id="part2">
<path id="Vector_42" d="M263.823 155.461C266.208 152.567 265.795 148.288 262.901 145.903C260.007 143.518 255.727 143.931 253.342 146.825C250.957 149.719 251.37 153.998 254.264 156.383C257.158 158.768 261.438 158.355 263.823 155.461Z" fill="#284356"/>
<path id="Vector_43" d="M294.114 149.036C296.499 146.142 296.086 141.862 293.192 139.477C290.298 137.092 286.018 137.505 283.633 140.399C281.249 143.293 281.661 147.573 284.556 149.958C287.45 152.343 291.729 151.93 294.114 149.036Z" fill="#284356"/>
<path id="Vector_44" d="M280.491 120.206C282.876 117.311 282.463 113.032 279.569 110.647C276.675 108.262 272.395 108.675 270.011 111.569C267.626 114.463 268.038 118.743 270.933 121.128C273.827 123.513 278.106 123.1 280.491 120.206Z" fill="#284356"/>
<path id="Vector_45" d="M258.754 152.147L258.409 150.148L286.24 145.377L275.42 119.282L277.298 118.5L289.092 146.951L258.754 152.147Z" fill="#284356"/>
</g>
<g id="part1">
<path id="Vector_46" d="M258.572 71.0084C260.81 67.9992 260.185 63.7455 257.176 61.5074C254.167 59.2693 249.913 59.8944 247.675 62.9036C245.437 65.9128 246.062 70.1665 249.071 72.4046C252.08 74.6427 256.334 74.0176 258.572 71.0084Z" fill="#284356"/>
<path id="Vector_47" d="M228.635 78.9453C230.873 75.9362 230.248 71.6824 227.239 69.4444C224.23 67.2063 219.976 67.8314 217.738 70.8406C215.5 73.8497 216.125 78.1035 219.134 80.3415C222.144 82.5796 226.397 81.9545 228.635 78.9453Z" fill="#284356"/>
<path id="Vector_48" d="M243.664 107.062C245.902 104.053 245.277 99.7994 242.268 97.5613C239.259 95.3233 235.005 95.9484 232.767 98.9575C230.529 101.967 231.154 106.22 234.163 108.458C237.173 110.697 241.426 110.071 243.664 107.062Z" fill="#284356"/>
<path id="Vector_49" d="M252.887 65.9536L253.334 67.9329L225.766 74.0837L237.875 99.611L236.038 100.484L222.843 72.6526L252.887 65.9536Z" fill="#284356"/>
</g>
</g>
<defs>
<linearGradient id="paint0_linear" x1="202.772" y1="61.8337" x2="202.772" y2="292.418" gradientUnits="userSpaceOnUse">
<stop stop-color="#EE8C68"/>
<stop offset="1" stop-color="#EB6B9D"/>
</linearGradient>
<linearGradient id="paint1_linear" x1="103.54" y1="216.823" x2="154.767" y2="178.649" gradientUnits="userSpaceOnUse">
<stop stop-color="#D84A3D" stop-opacity="0"/>
<stop offset="0.411458" stop-color="#CD5930"/>
</linearGradient>
<linearGradient id="paint2_linear" x1="30614.8" y1="27323.9" x2="39774.8" y2="14952.7" gradientUnits="userSpaceOnUse">
<stop stop-color="#EB6B9D" stop-opacity="0"/>
<stop offset="0.364583" stop-color="#B43F15"/>
</linearGradient>
<linearGradient id="paint3_linear" x1="258.693" y1="-23.5999" x2="252.816" y2="144.87" gradientUnits="userSpaceOnUse">
<stop stop-color="#FFEED9" stop-opacity="0"/>
<stop offset="1" stop-color="#68E1FD"/>
</linearGradient>
<clipPath id="clip0">
<rect width="406" height="306" fill="white"/>
</clipPath>
</defs>
</svg>
